<svg width="65" height="24" viewBox="0 0 65 24" fill="none" xmlns="http://www.w3.org/2000/svg">
<path d="M4.14862 4.45508L7.08186 9.41246H7.19549L10.1429 4.45508H13.616L9.17703 11.7278L13.7154 19.0005H10.1785L7.19549 14.036H7.08186L4.0989 19.0005H0.576172L5.12873 11.7278L0.661399 4.45508H4.14862ZM15.562 4.45508H19.3546L23.3603 14.2278H23.5307L27.5364 4.45508H31.329V19.0005H28.3461V9.5332H28.2253L24.4611 18.9295H22.4299L18.6657 9.49769H18.5449V19.0005H15.562V4.45508ZM33.8628 19.0005V4.45508H36.938V16.465H43.1738V19.0005H33.8628Z" fill="white"/>
<path d="M54.1934 4.45508H57.2687V13.9011C57.2687 14.9617 57.0154 15.8897 56.5087 16.6852C56.0068 17.4806 55.3037 18.1009 54.3994 18.546C53.495 18.9863 52.4415 19.2065 51.2388 19.2065C50.0315 19.2065 48.9756 18.9863 48.0712 18.546C47.1669 18.1009 46.4638 17.4806 45.9619 16.6852C45.46 15.8897 45.209 14.9617 45.209 13.9011V4.45508H48.2843V13.6383C48.2843 14.1923 48.405 14.6847 48.6465 15.1156C48.8927 15.5464 49.2384 15.885 49.6834 16.1312C50.1285 16.3774 50.647 16.5005 51.2388 16.5005C51.8354 16.5005 52.3539 16.3774 52.7942 16.1312C53.2393 15.885 53.5826 15.5464 53.8241 15.1156C54.0703 14.6847 54.1934 14.1923 54.1934 13.6383V4.45508ZM62.8741 4.45508V19.0005H59.7989V4.45508H62.8741Z" fill="#FC2C39"/>
</svg>
