<svg width="79" height="24" viewBox="0 0 79 24" fill="none"
    xmlns="http://www.w3.org/2000/svg">
    <path d="M18.679 9.18466H16.4631C16.3778 8.71117 16.2192 8.29451 15.9872 7.93466C15.7552 7.57481 15.4711 7.26941 15.1349 7.01847C14.7988 6.76752 14.4223 6.57812 14.0057 6.45028C13.5938 6.32244 13.1558 6.25852 12.6918 6.25852C11.8537 6.25852 11.1032 6.46922 10.4403 6.89062C9.7822 7.31203 9.26136 7.92992 8.87784 8.74432C8.49905 9.55871 8.30966 10.553 8.30966 11.7273C8.30966 12.911 8.49905 13.91 8.87784 14.7244C9.26136 15.5388 9.78456 16.1544 10.4474 16.571C11.1103 16.9877 11.8561 17.196 12.6847 17.196C13.1439 17.196 13.5795 17.1345 13.9915 17.0114C14.4081 16.8835 14.7846 16.6965 15.1207 16.4503C15.4569 16.2041 15.741 15.9034 15.973 15.5483C16.2098 15.1884 16.3731 14.7765 16.4631 14.3125L18.679 14.3196C18.5606 15.0346 18.331 15.6927 17.9901 16.294C17.6539 16.8906 17.2206 17.4067 16.6903 17.8423C16.1648 18.2732 15.5634 18.607 14.8864 18.8438C14.2093 19.0805 13.4706 19.1989 12.6705 19.1989C11.411 19.1989 10.2888 18.9006 9.30398 18.304C8.31913 17.7027 7.54261 16.8433 6.97443 15.7259C6.41098 14.6084 6.12926 13.2756 6.12926 11.7273C6.12926 10.1742 6.41335 8.84138 6.98153 7.72869C7.54972 6.61127 8.32623 5.75426 9.31108 5.15767C10.2959 4.55634 11.4157 4.25568 12.6705 4.25568C13.4422 4.25568 14.1619 4.36695 14.8295 4.58949C15.5019 4.80729 16.1056 5.12926 16.6406 5.5554C17.1757 5.9768 17.6184 6.4929 17.9688 7.10369C18.3191 7.70975 18.5559 8.40341 18.679 9.18466ZM23.305 19V4.45455H28.4897C29.6166 4.45455 30.5517 4.64867 31.2951 5.03693C32.0432 5.42519 32.6019 5.96259 32.9712 6.64915C33.3406 7.33097 33.5252 8.11932 33.5252 9.0142C33.5252 9.90436 33.3382 10.688 32.9641 11.3651C32.5948 12.0374 32.0361 12.5606 31.288 12.9347C30.5446 13.3087 29.6095 13.4957 28.4826 13.4957H24.555V11.6065H28.2837C28.994 11.6065 29.5716 11.5047 30.0167 11.3011C30.4665 11.0975 30.7956 10.8016 31.0039 10.4134C31.2122 10.0251 31.3164 9.55871 31.3164 9.0142C31.3164 8.46496 31.2099 7.98911 30.9968 7.58665C30.7885 7.18419 30.4594 6.87642 30.0096 6.66335C29.5645 6.44555 28.9798 6.33665 28.2553 6.33665H25.4996V19H23.305ZM30.4854 12.4375L34.0792 19H31.5792L28.0565 12.4375H30.4854ZM38.1957 4.45455H40.859L45.4897 15.7614H45.6602L50.2908 4.45455H52.9542V19H50.8661V8.47443H50.7312L46.4414 18.9787H44.7085L40.4187 8.46733H40.2837V19H38.1957V4.45455Z" fill="#DDE2FC"/>
    <rect x="57.25" y="2.25" width="19.5" height="19.5" stroke="#6B92F0" stroke-width="0.5"/>
    <path d="M62 5L64 6.86667V19H62V5Z" fill="#6B92F0"/>
    <path d="M72 5L70 6.86667V19H72V5Z" fill="#6B92F0"/>
    <path d="M66 8L68 9.83333V19H66V8Z" fill="#6B92F0"/>
</svg>
