<?xml version="1.0" encoding="UTF-8"?>
<svg xmlns="http://www.w3.org/2000/svg" xmlns:xlink="http://www.w3.org/1999/xlink" width="115px" height="55px" viewBox="0 0 29 12" version="1.1">
<g id="surface1">
<path style=" stroke:none;fill-rule:nonzero;fill:rgb(20%,40.392157%,80%);fill-opacity:1;" d="M 21.367188 9.207031 C 20.960938 9.207031 20.605469 9.117188 20.304688 8.933594 C 20.011719 8.746094 19.785156 8.484375 19.625 8.148438 C 19.464844 7.804688 19.386719 7.398438 19.386719 6.933594 L 19.386719 4.09375 C 19.386719 4.027344 19.410156 3.96875 19.457031 3.921875 C 19.503906 3.875 19.558594 3.851562 19.625 3.851562 L 20.507812 3.851562 C 20.578125 3.851562 20.636719 3.875 20.675781 3.921875 C 20.722656 3.96875 20.746094 4.027344 20.746094 4.09375 L 20.746094 6.875 C 20.746094 7.707031 21.109375 8.125 21.835938 8.125 C 22.183594 8.125 22.457031 8.015625 22.65625 7.792969 C 22.863281 7.570312 22.96875 7.265625 22.96875 6.875 L 22.96875 4.09375 C 22.96875 4.027344 22.992188 3.96875 23.039062 3.921875 C 23.082031 3.875 23.140625 3.851562 23.207031 3.851562 L 24.085938 3.851562 C 24.15625 3.851562 24.210938 3.875 24.257812 3.921875 C 24.304688 3.96875 24.328125 4.027344 24.328125 4.09375 L 24.328125 8.863281 C 24.328125 8.929688 24.304688 8.988281 24.257812 9.035156 C 24.210938 9.082031 24.15625 9.105469 24.085938 9.105469 L 23.277344 9.105469 C 23.203125 9.105469 23.144531 9.082031 23.097656 9.035156 C 23.058594 8.988281 23.039062 8.929688 23.039062 8.863281 L 23.039062 8.449219 C 22.855469 8.6875 22.632812 8.871094 22.367188 9.003906 C 22.101562 9.140625 21.765625 9.207031 21.367188 9.207031 Z M 21.367188 9.207031 "/>
<path style=" stroke:none;fill-rule:nonzero;fill:rgb(20%,40.392157%,80%);fill-opacity:1;" d="M 25.890625 9.109375 C 25.824219 9.109375 25.765625 9.085938 25.71875 9.039062 C 25.671875 8.988281 25.648438 8.933594 25.648438 8.867188 L 25.648438 4.097656 C 25.648438 4.027344 25.671875 3.972656 25.71875 3.925781 C 25.765625 3.878906 25.824219 3.851562 25.890625 3.851562 L 26.71875 3.851562 C 26.792969 3.851562 26.847656 3.878906 26.890625 3.925781 C 26.9375 3.972656 26.960938 4.027344 26.960938 4.097656 L 26.960938 8.867188 C 26.960938 8.933594 26.9375 8.988281 26.890625 9.039062 C 26.847656 9.085938 26.792969 9.109375 26.71875 9.109375 Z M 25.847656 2.984375 C 25.777344 2.984375 25.714844 2.964844 25.667969 2.925781 C 25.628906 2.875 25.609375 2.816406 25.609375 2.742188 L 25.609375 2.015625 C 25.609375 1.945312 25.628906 1.890625 25.667969 1.84375 C 25.714844 1.796875 25.777344 1.773438 25.847656 1.773438 L 26.757812 1.773438 C 26.832031 1.773438 26.894531 1.796875 26.941406 1.84375 C 26.984375 1.890625 27.007812 1.945312 27.007812 2.015625 L 27.007812 2.742188 C 27.007812 2.816406 26.984375 2.875 26.941406 2.925781 C 26.894531 2.964844 26.832031 2.984375 26.757812 2.984375 Z M 25.847656 2.984375 "/>
<path style=" stroke:none;fill-rule:nonzero;fill:rgb(20%,20%,40%);fill-opacity:1;" d="M 0.347656 9.105469 C 0.289062 9.105469 0.234375 9.085938 0.1875 9.046875 C 0.148438 9 0.128906 8.945312 0.128906 8.882812 C 0.128906 8.863281 0.128906 8.839844 0.136719 8.8125 C 0.152344 8.785156 0.171875 8.753906 0.195312 8.710938 L 1.898438 6.410156 L 0.316406 4.246094 C 0.296875 4.210938 0.28125 4.183594 0.265625 4.15625 C 0.261719 4.128906 0.257812 4.101562 0.257812 4.074219 C 0.257812 4.015625 0.277344 3.964844 0.316406 3.921875 C 0.363281 3.875 0.417969 3.851562 0.476562 3.851562 L 1.347656 3.851562 C 1.425781 3.851562 1.488281 3.871094 1.527344 3.914062 C 1.566406 3.953125 1.597656 3.988281 1.617188 4.023438 L 2.746094 5.539062 L 3.878906 4.023438 C 3.90625 3.988281 3.933594 3.953125 3.96875 3.914062 C 4.007812 3.871094 4.070312 3.851562 4.148438 3.851562 L 4.980469 3.851562 C 5.039062 3.851562 5.089844 3.875 5.128906 3.921875 C 5.175781 3.964844 5.199219 4.011719 5.199219 4.0625 C 5.199219 4.097656 5.191406 4.128906 5.179688 4.15625 C 5.171875 4.183594 5.160156 4.210938 5.140625 4.246094 L 3.539062 6.429688 L 5.25 8.710938 C 5.277344 8.753906 5.292969 8.785156 5.300781 8.8125 C 5.3125 8.839844 5.320312 8.863281 5.320312 8.882812 C 5.320312 8.945312 5.296875 9 5.25 9.046875 C 5.207031 9.085938 5.160156 9.105469 5.097656 9.105469 L 4.1875 9.105469 C 4.113281 9.105469 4.058594 9.089844 4.019531 9.054688 C 3.976562 9.015625 3.945312 8.980469 3.917969 8.945312 L 2.71875 7.339844 L 1.496094 8.945312 C 1.472656 8.980469 1.4375 9.015625 1.398438 9.054688 C 1.363281 9.089844 1.308594 9.105469 1.226562 9.105469 Z M 0.347656 9.105469 "/>
<path style=" stroke:none;fill-rule:nonzero;fill:rgb(20%,20%,40%);fill-opacity:1;" d="M 6.453125 9.105469 C 6.386719 9.105469 6.332031 9.082031 6.285156 9.035156 C 6.238281 8.988281 6.214844 8.929688 6.214844 8.863281 L 6.214844 4.09375 C 6.214844 4.027344 6.238281 3.96875 6.285156 3.921875 C 6.332031 3.875 6.386719 3.851562 6.453125 3.851562 L 7.234375 3.851562 C 7.300781 3.851562 7.359375 3.875 7.402344 3.921875 C 7.449219 3.96875 7.472656 4.027344 7.472656 4.09375 L 7.472656 4.4375 C 7.613281 4.25 7.800781 4.089844 8.035156 3.964844 C 8.273438 3.828125 8.558594 3.757812 8.882812 3.75 C 9.644531 3.738281 10.175781 4.039062 10.476562 4.648438 C 10.628906 4.382812 10.847656 4.164062 11.136719 4.003906 C 11.429688 3.835938 11.753906 3.75 12.105469 3.75 C 12.453125 3.75 12.765625 3.832031 13.046875 3.992188 C 13.332031 4.15625 13.554688 4.402344 13.714844 4.730469 C 13.882812 5.054688 13.964844 5.464844 13.964844 5.964844 L 13.964844 8.863281 C 13.964844 8.929688 13.941406 8.988281 13.898438 9.035156 C 13.851562 9.082031 13.792969 9.105469 13.726562 9.105469 L 12.90625 9.105469 C 12.839844 9.105469 12.78125 9.082031 12.734375 9.035156 C 12.6875 8.988281 12.667969 8.929688 12.667969 8.863281 L 12.667969 6.042969 C 12.667969 5.742188 12.621094 5.503906 12.535156 5.328125 C 12.449219 5.144531 12.332031 5.015625 12.1875 4.945312 C 12.039062 4.871094 11.875 4.832031 11.695312 4.832031 C 11.550781 4.832031 11.402344 4.871094 11.253906 4.945312 C 11.109375 5.015625 10.988281 5.144531 10.894531 5.328125 C 10.800781 5.503906 10.753906 5.742188 10.753906 6.042969 L 10.753906 8.863281 C 10.753906 8.929688 10.730469 8.988281 10.683594 9.035156 C 10.640625 9.082031 10.582031 9.105469 10.515625 9.105469 L 9.695312 9.105469 C 9.621094 9.105469 9.5625 9.082031 9.515625 9.035156 C 9.476562 8.988281 9.453125 8.929688 9.453125 8.863281 L 9.453125 6.042969 C 9.453125 5.742188 9.410156 5.503906 9.316406 5.328125 C 9.222656 5.144531 9.101562 5.015625 8.953125 4.945312 C 8.808594 4.871094 8.652344 4.832031 8.484375 4.832031 C 8.332031 4.832031 8.179688 4.871094 8.035156 4.953125 C 7.886719 5.027344 7.769531 5.152344 7.675781 5.328125 C 7.582031 5.503906 7.535156 5.742188 7.535156 6.042969 L 7.535156 8.863281 C 7.535156 8.929688 7.511719 8.988281 7.464844 9.035156 C 7.417969 9.082031 7.359375 9.105469 7.292969 9.105469 Z M 6.453125 9.105469 "/>
<path style=" stroke:none;fill-rule:nonzero;fill:rgb(20%,20%,40%);fill-opacity:1;" d="M 15.492188 9.109375 C 15.425781 9.109375 15.367188 9.082031 15.320312 9.035156 C 15.273438 8.988281 15.25 8.933594 15.25 8.863281 L 15.25 2.175781 C 15.25 2.109375 15.273438 2.050781 15.320312 2.003906 C 15.367188 1.957031 15.425781 1.933594 15.492188 1.933594 L 16.320312 1.933594 C 16.386719 1.933594 16.445312 1.957031 16.492188 2.003906 C 16.539062 2.050781 16.5625 2.109375 16.5625 2.175781 L 16.5625 8.863281 C 16.5625 8.933594 16.539062 8.988281 16.492188 9.035156 C 16.445312 9.082031 16.386719 9.109375 16.320312 9.109375 Z M 15.492188 9.109375 "/>
<path style=" stroke:none;fill-rule:evenodd;fill:rgb(20%,40.392157%,80%);fill-opacity:1;" d="M 28.722656 0.28125 L 17.9375 0.28125 L 17.9375 11.171875 L 28.722656 11.171875 Z M 17.753906 0.09375 L 17.753906 11.359375 L 28.90625 11.359375 L 28.90625 0.09375 Z M 17.753906 0.09375 "/>
</g>
</svg>
